<?xml version="1.0" encoding="utf-8"?>
<!-- Generator: Adobe Illustrator 21.1.0, SVG Export Plug-In . SVG Version: 6.00 Build 0)  -->
<svg version="1.1" id="Layer_1" xmlns="http://www.w3.org/2000/svg" xmlns:xlink="http://www.w3.org/1999/xlink" x="0px" y="0px"
	 viewBox="0 0 160 43" style="enable-background:new 0 0 160 43;" xml:space="preserve">
<style type="text/css">
	.st0{fill-rule:evenodd;clip-rule:evenodd;fill:#FF7300;}
	.st1{fill-rule:evenodd;clip-rule:evenodd;fill:#919396;}
	.st2{fill:#919396;}
	.st3{fill:none;stroke:#919396;stroke-width:0.75;}
</style>
<g>
	<g id="logo_1_">
		<path class="st0" d="M143.197,28.193c-4.654,0.054-8.468-3.799-8.522-8.604c-0.05-4.804,3.68-8.746,8.333-8.798
			c2.721-0.031,5.157,1.275,6.719,3.323c-1.853-3.107-5.193-5.166-8.984-5.121c-5.748,0.065-10.75,4.928-10.684,10.861
			c0.06,5.932,5.17,10.688,10.917,10.624c4.485-0.054,8.277-3.03,9.692-7.156C149.312,26.176,146.486,28.156,143.197,28.193
			L143.197,28.193z"/>
		<path class="st0" d="M142.981,11.972c-2.656-0.033-4.993,1.409-6.289,3.585c1.095-1.435,2.797-2.35,4.701-2.328
			c3.26,0.039-0.893,2.671-0.932,6.036c-0.036,3.363,4.06,6.185,0.801,6.147c-2.302-0.026-4.28-1.413-5.231-3.407
			c0.992,2.886,3.645,4.971,6.786,5.007c4.02,0.047,7.321-3.284,7.364-7.437C150.226,15.421,147.003,12.018,142.981,11.972
			L142.981,11.972z M145.578,22.784c-1.027,0-0.902-1.667-0.902-3.489c0-1.821-0.125-3.104,0.902-3.104
			c1.028,0,2.658,1.476,2.658,3.296C148.236,21.307,146.605,22.784,145.578,22.784L145.578,22.784z"/>
		<path class="st1" d="M54.41,21.8c0.452-0.36,1.015-0.539,1.689-0.539c0.689,0,1.269,0.185,1.742,0.561
			c0.471,0.372,0.705,0.961,0.705,1.765c0,0.732-0.23,1.275-0.694,1.631c-0.462,0.353-1.025,0.529-1.688,0.529
			c-0.655,0-1.225-0.186-1.707-0.556c-0.483-0.371-0.722-0.933-0.722-1.686C53.735,22.727,53.96,22.159,54.41,21.8L54.41,21.8z
			 M59.913,26.401v-8.007h-1.521v2.85c-0.263-0.232-0.603-0.422-1.021-0.571c-0.42-0.146-0.898-0.219-1.434-0.219
			c-0.732,0-1.392,0.126-1.986,0.379c-0.591,0.252-1.035,0.616-1.332,1.092c-0.296,0.471-0.443,0.999-0.443,1.58
			c0,0.597,0.163,1.124,0.491,1.583c0.327,0.46,0.79,0.815,1.385,1.069c0.598,0.253,1.252,0.38,1.963,0.38
			c1.094,0,1.928-0.282,2.494-0.847v0.712H59.913L59.913,26.401z"/>
		<path class="st1" d="M61.952,28.632l-0.176-0.918c0.334,0.062,0.626,0.092,0.874,0.092c0.341,0,0.614-0.036,0.816-0.11
			c0.204-0.073,0.371-0.177,0.5-0.315c0.098-0.093,0.251-0.34,0.468-0.732c0.028-0.05,0.071-0.13,0.136-0.237l-3.409-5.826h1.606
			l1.879,3.364c0.244,0.427,0.462,0.876,0.656,1.349c0.177-0.444,0.387-0.883,0.626-1.311l1.914-3.402h1.511l-3.39,5.911
			c-0.365,0.637-0.65,1.077-0.853,1.318c-0.268,0.324-0.579,0.561-0.929,0.709c-0.348,0.149-0.765,0.223-1.249,0.223
			C62.637,28.749,62.309,28.71,61.952,28.632L61.952,28.632z"/>
		<path class="st1" d="M70.354,26.401v-5.813h1.365v0.824c0.284-0.289,0.652-0.522,1.117-0.698c0.464-0.174,0.992-0.261,1.582-0.261
			c0.66,0,1.199,0.09,1.622,0.269c0.422,0.183,0.719,0.434,0.893,0.756c0.707-0.684,1.63-1.025,2.765-1.025
			c0.888,0,1.57,0.159,2.048,0.48c0.478,0.321,0.714,0.814,0.714,1.478v3.989h-1.519v-3.659c0-0.391-0.049-0.677-0.145-0.85
			c-0.099-0.173-0.279-0.313-0.535-0.416c-0.258-0.104-0.559-0.157-0.907-0.157c-0.627,0-1.146,0.135-1.564,0.404
			c-0.412,0.27-0.621,0.705-0.621,1.306v3.371h-1.522v-3.775c0-0.439-0.121-0.767-0.366-0.983c-0.246-0.215-0.649-0.323-1.204-0.323
			c-0.425,0-0.816,0.071-1.178,0.215c-0.358,0.142-0.621,0.356-0.779,0.636c-0.162,0.281-0.244,0.688-0.244,1.223v3.008H70.354
			L70.354,26.401z"/>
		<path class="st1" d="M90.14,23.857c0,0.436-0.081,0.765-0.244,0.99c-0.216,0.286-0.55,0.514-1.009,0.685
			c-0.458,0.17-0.979,0.254-1.566,0.254c-0.592,0-1.041-0.089-1.349-0.266c-0.309-0.177-0.462-0.397-0.462-0.662
			c0-0.171,0.069-0.325,0.209-0.467c0.141-0.14,0.339-0.248,0.597-0.322c0.259-0.072,0.701-0.137,1.321-0.193
			c1.1-0.108,1.922-0.235,2.473-0.381L90.14,23.857L90.14,23.857z M90.553,26.401h1.559c-0.184-0.215-0.307-0.443-0.369-0.681
			c-0.062-0.24-0.093-0.823-0.093-1.751v-1.318c0-0.443-0.026-0.745-0.075-0.914c-0.09-0.269-0.247-0.49-0.474-0.667
			c-0.223-0.176-0.573-0.323-1.05-0.44c-0.479-0.118-1.096-0.176-1.859-0.176c-0.77,0-1.443,0.067-2.029,0.205
			c-0.583,0.136-1.029,0.333-1.336,0.583c-0.31,0.253-0.532,0.588-0.666,1.002l1.483,0.134c0.163-0.414,0.414-0.705,0.756-0.868
			c0.341-0.164,0.871-0.247,1.585-0.247c0.766,0,1.343,0.114,1.733,0.343c0.286,0.164,0.431,0.45,0.431,0.854
			c0,0.04-0.004,0.128-0.009,0.266c-0.581,0.128-1.485,0.243-2.716,0.334c-0.601,0.047-1.051,0.098-1.349,0.156
			c-0.407,0.071-0.773,0.179-1.096,0.319c-0.325,0.142-0.587,0.329-0.786,0.567c-0.2,0.236-0.302,0.496-0.302,0.782
			c0,0.485,0.266,0.882,0.795,1.191c0.53,0.309,1.291,0.462,2.274,0.462c0.597,0,1.157-0.064,1.677-0.19
			c0.523-0.125,1.058-0.351,1.607-0.677C90.289,25.951,90.393,26.193,90.553,26.401L90.553,26.401z"/>
		<path class="st1" d="M92.685,26.401l3.267-3.007l-3.017-2.806h1.881l1.403,1.363c0.258,0.257,0.462,0.467,0.616,0.627
			c0.235-0.217,0.453-0.417,0.657-0.605l1.506-1.384h1.818l-3.02,2.783l3.242,3.03h-1.852l-1.839-1.786l-0.45-0.446l-2.393,2.232
			H92.685L92.685,26.401z"/>
		<polygon class="st1" points="102.033,26.401 102.033,20.588 103.554,20.588 103.554,26.401 102.033,26.401 		"/>
		<path class="st1" d="M111.412,26.401v-0.846c-0.692,0.654-1.634,0.982-2.826,0.982c-0.524,0-1.018-0.065-1.471-0.193
			c-0.455-0.131-0.793-0.293-1.017-0.49c-0.219-0.198-0.374-0.442-0.465-0.735c-0.06-0.192-0.092-0.5-0.092-0.924v-3.606h1.522
			v3.226c0,0.518,0.032,0.868,0.091,1.047c0.096,0.261,0.295,0.462,0.604,0.608c0.307,0.148,0.686,0.22,1.139,0.22
			c0.453,0,0.876-0.075,1.273-0.224c0.397-0.149,0.677-0.353,0.841-0.617c0.163-0.258,0.249-0.642,0.249-1.143v-3.116h1.521v5.813
			H111.412L111.412,26.401z"/>
		<path class="st1" d="M114.874,26.401v-5.813h1.366v0.824c0.28-0.289,0.65-0.522,1.115-0.698c0.465-0.174,0.99-0.261,1.582-0.261
			c0.66,0,1.2,0.09,1.623,0.269c0.422,0.183,0.717,0.434,0.892,0.756c0.708-0.684,1.627-1.025,2.764-1.025
			c0.889,0,1.571,0.159,2.047,0.48c0.477,0.321,0.716,0.814,0.716,1.478v3.989h-1.52v-3.659c0-0.391-0.048-0.677-0.147-0.85
			c-0.097-0.173-0.274-0.313-0.535-0.416c-0.256-0.104-0.561-0.157-0.905-0.157c-0.628,0-1.149,0.135-1.565,0.404
			c-0.416,0.27-0.62,0.705-0.62,1.306v3.371h-1.521v-3.775c0-0.439-0.125-0.767-0.368-0.983c-0.246-0.215-0.646-0.323-1.206-0.323
			c-0.424,0-0.816,0.071-1.174,0.215c-0.36,0.142-0.621,0.356-0.783,0.636c-0.163,0.281-0.241,0.688-0.241,1.223v3.008H114.874
			L114.874,26.401z"/>
		<path class="st1" d="M102.837,19.652c-0.112,0-0.212-0.042-0.289-0.119l-0.48-0.482c-0.156-0.158-0.156-0.415,0.001-0.572
			l0.483-0.48c0.077-0.076,0.178-0.118,0.285-0.118c0.109,0,0.21,0.043,0.288,0.12l0.478,0.482c0.158,0.158,0.156,0.414,0,0.572
			l-0.482,0.478C103.045,19.612,102.944,19.653,102.837,19.652L102.837,19.652z"/>
	</g>
	<g>
		<g>
			<path class="st2" d="M154.437,14.119c-1.415,0-2.565-1.15-2.565-2.564c0-1.413,1.15-2.563,2.565-2.563
				c1.414,0,2.563,1.15,2.563,2.563C157,12.969,155.85,14.119,154.437,14.119L154.437,14.119z M154.437,9.526
				c-1.12,0-2.03,0.911-2.03,2.029c0,1.12,0.911,2.029,2.03,2.029c1.118,0,2.029-0.91,2.029-2.029
				C156.465,10.436,155.555,9.526,154.437,9.526L154.437,9.526z"/>
		</g>
		<g>
			<g>
				<path class="st2" d="M153.373,10.322h1.331c0.443,0,0.72,0.308,0.72,0.68c0,0.291-0.118,0.508-0.39,0.619v0.007
					c0.266,0.069,0.343,0.329,0.36,0.577c0.011,0.156,0.007,0.447,0.102,0.585h-0.541c-0.065-0.156-0.058-0.395-0.086-0.592
					c-0.037-0.258-0.139-0.372-0.412-0.372h-0.543v0.964h-0.541V10.322z M153.915,11.438h0.596c0.241,0,0.373-0.104,0.373-0.352
					c0-0.239-0.132-0.342-0.373-0.342h-0.596V11.438z"/>
			</g>
		</g>
	</g>
</g>
<g>
	<path class="st2" d="M4.621,27.222v-5.869h0.772v0.401c0.103-0.165,0.221-0.286,0.356-0.362c0.135-0.077,0.292-0.115,0.471-0.115
		c0.367,0,0.638,0.175,0.813,0.526s0.262,0.896,0.262,1.636c0,0.742-0.087,1.289-0.262,1.64c-0.175,0.352-0.446,0.527-0.813,0.527
		c-0.176,0-0.332-0.04-0.467-0.119c-0.135-0.08-0.255-0.202-0.36-0.367v2.103H4.621z M5.363,23.438c0,0.537,0.045,0.914,0.134,1.128
		c0.09,0.215,0.238,0.322,0.446,0.322s0.355-0.107,0.443-0.322c0.088-0.214,0.132-0.591,0.132-1.128
		c0-0.534-0.044-0.909-0.132-1.124C6.298,22.1,6.15,21.992,5.943,21.992S5.587,22.1,5.497,22.314
		C5.408,22.529,5.363,22.904,5.363,23.438z"/>
	<path class="st2" d="M7.862,23.438c0-0.705,0.12-1.242,0.36-1.61s0.589-0.552,1.047-0.552c0.458,0,0.807,0.184,1.047,0.552
		s0.36,0.905,0.36,1.61c0,0.711-0.12,1.251-0.36,1.621c-0.24,0.369-0.589,0.555-1.047,0.555c-0.458,0-0.807-0.186-1.047-0.555
		C7.982,24.689,7.862,24.149,7.862,23.438z M8.643,23.43c0,0.512,0.051,0.887,0.152,1.124c0.101,0.237,0.259,0.356,0.476,0.356
		c0.219,0,0.38-0.119,0.484-0.358S9.91,23.939,9.91,23.43c0-0.506-0.052-0.878-0.156-1.117s-0.265-0.358-0.484-0.358
		c-0.216,0-0.375,0.119-0.476,0.356C8.693,22.548,8.643,22.921,8.643,23.43z"/>
	<path class="st2" d="M13.207,23.481c-0.017-0.108-0.035-0.234-0.053-0.378c-0.019-0.144-0.038-0.316-0.058-0.518
		c-0.017,0.179-0.035,0.345-0.054,0.499c-0.018,0.153-0.039,0.287-0.062,0.4l-0.375,2.052h-0.542l-0.968-4.185h0.75l0.401,2.146
		c0.02,0.114,0.039,0.24,0.056,0.38s0.037,0.31,0.06,0.512c0.02-0.205,0.039-0.378,0.058-0.521c0.019-0.142,0.036-0.265,0.053-0.366
		l0.375-2.15h0.499l0.384,2.15c0.028,0.147,0.061,0.416,0.098,0.806c0.003,0.034,0.006,0.062,0.009,0.081
		c0.014-0.171,0.031-0.333,0.051-0.486c0.02-0.153,0.042-0.287,0.064-0.4l0.393-2.15h0.759l-0.981,4.185h-0.542L13.207,23.481z"/>
	<path class="st2" d="M18.112,24.138v0.056c0,0.441-0.111,0.788-0.333,1.041c-0.222,0.253-0.524,0.38-0.908,0.38
		c-0.469,0-0.813-0.175-1.03-0.522c-0.217-0.349-0.326-0.905-0.326-1.67c0-0.72,0.109-1.257,0.326-1.612
		c0.218-0.355,0.547-0.533,0.987-0.533c0.469,0,0.808,0.161,1.015,0.483c0.208,0.323,0.312,0.852,0.312,1.585v0.243h-1.915v0.124
		c0,0.438,0.05,0.755,0.149,0.953c0.099,0.197,0.257,0.296,0.473,0.296c0.173,0,0.305-0.068,0.395-0.204
		c0.09-0.137,0.139-0.342,0.147-0.614L18.112,24.138z M16.239,22.986h1.173V22.88c0-0.344-0.045-0.593-0.136-0.746
		c-0.091-0.154-0.238-0.23-0.439-0.23c-0.196,0-0.345,0.092-0.446,0.274C16.29,22.361,16.239,22.631,16.239,22.986z"/>
	<path class="st2" d="M18.905,25.537v-4.185h0.742v0.61c0.105-0.222,0.24-0.389,0.405-0.501c0.165-0.112,0.367-0.175,0.606-0.186
		v0.811H20.53c-0.299,0-0.518,0.074-0.657,0.224c-0.14,0.149-0.209,0.383-0.209,0.701v2.525H18.905z"/>
	<path class="st2" d="M23.64,24.138v0.056c0,0.441-0.111,0.788-0.333,1.041c-0.222,0.253-0.524,0.38-0.908,0.38
		c-0.469,0-0.813-0.175-1.03-0.522c-0.217-0.349-0.326-0.905-0.326-1.67c0-0.72,0.109-1.257,0.326-1.612
		c0.218-0.355,0.547-0.533,0.987-0.533c0.469,0,0.808,0.161,1.015,0.483c0.208,0.323,0.312,0.852,0.312,1.585v0.243h-1.915v0.124
		c0,0.438,0.05,0.755,0.149,0.953c0.099,0.197,0.257,0.296,0.473,0.296c0.173,0,0.305-0.068,0.395-0.204
		c0.09-0.137,0.139-0.342,0.147-0.614L23.64,24.138z M21.767,22.986h1.173V22.88c0-0.344-0.045-0.593-0.136-0.746
		c-0.091-0.154-0.238-0.23-0.439-0.23c-0.196,0-0.345,0.092-0.446,0.274C21.817,22.361,21.767,22.631,21.767,22.986z"/>
	<path class="st2" d="M26.152,25.537v-0.409c-0.105,0.168-0.226,0.29-0.36,0.369c-0.135,0.078-0.291,0.117-0.467,0.117
		c-0.37,0-0.641-0.176-0.814-0.527c-0.173-0.351-0.26-0.896-0.26-1.636c0-0.742,0.087-1.289,0.26-1.64
		c0.173-0.352,0.445-0.527,0.814-0.527c0.179,0,0.336,0.039,0.472,0.115c0.135,0.077,0.253,0.198,0.356,0.363v-2.837h0.768v6.611
		H26.152z M25.026,23.451c0,0.535,0.044,0.909,0.132,1.124c0.088,0.215,0.236,0.322,0.443,0.322s0.355-0.107,0.444-0.322
		c0.088-0.215,0.132-0.589,0.132-1.124c0-0.537-0.044-0.913-0.132-1.128c-0.088-0.215-0.236-0.322-0.444-0.322
		s-0.355,0.107-0.443,0.322C25.07,22.538,25.026,22.914,25.026,23.451z"/>
	<path class="st2" d="M29.479,25.537v-6.611h0.772v2.837c0.103-0.165,0.221-0.286,0.356-0.363c0.135-0.076,0.292-0.115,0.471-0.115
		c0.367,0,0.638,0.176,0.813,0.527c0.175,0.351,0.262,0.897,0.262,1.64c0,0.739-0.087,1.285-0.262,1.636
		c-0.175,0.352-0.446,0.527-0.813,0.527c-0.176,0-0.332-0.039-0.467-0.117c-0.135-0.079-0.255-0.201-0.36-0.369v0.409H29.479z
		 M30.221,23.451c0,0.535,0.045,0.909,0.134,1.124c0.09,0.215,0.238,0.322,0.446,0.322s0.355-0.107,0.443-0.322
		c0.088-0.215,0.132-0.589,0.132-1.124c0-0.537-0.044-0.913-0.132-1.128c-0.088-0.215-0.236-0.322-0.443-0.322
		s-0.356,0.107-0.446,0.322C30.266,22.538,30.221,22.914,30.221,23.451z"/>
	<path class="st2" d="M32.576,21.353h0.793l0.49,2.743l0.661-2.743h0.764l-1.689,5.869h-0.793l0.644-2.052L32.576,21.353z"/>
</g>
<line class="st3" x1="43.944" y1="12.699" x2="43.944" y2="33.455"/>
</svg>
