<?xml version="1.0" encoding="utf-8"?>
<!-- Generator: Adobe Illustrator 22.0.1, SVG Export Plug-In . SVG Version: 6.00 Build 0)  -->
<svg version="1.1" id="Layer_1" xmlns="http://www.w3.org/2000/svg" xmlns:xlink="http://www.w3.org/1999/xlink" x="0px" y="0px"
	 viewBox="0 0 160 43" style="enable-background:new 0 0 160 43;" xml:space="preserve">
<style type="text/css">
	.st0{fill:#FFFFFF;}
	.st1{fill:#919396;stroke:#FFFFFF;stroke-width:0.75;}
</style>
<g>
	<g id="logo_1_">
		<path class="st0" d="M143.2,28.2c-4.7,0.1-8.5-3.8-8.5-8.6c-0.1-4.8,3.7-8.7,8.3-8.8c2.7,0,5.2,1.3,6.7,3.3
			c-1.9-3.1-5.2-5.2-9-5.1c-5.7,0.1-10.8,4.9-10.7,10.9c0.1,5.9,5.2,10.7,10.9,10.6c4.5-0.1,8.3-3,9.7-7.2
			C149.3,26.2,146.5,28.2,143.2,28.2L143.2,28.2z"/>
		<path class="st0" d="M143,12c-2.7,0-5,1.4-6.3,3.6c1.1-1.4,2.8-2.3,4.7-2.3c3.3,0-0.9,2.7-0.9,6c0,3.4,4.1,6.2,0.8,6.1
			c-2.3,0-4.3-1.4-5.2-3.4c1,2.9,3.6,5,6.8,5c4,0,7.3-3.3,7.4-7.4C150.2,15.4,147,12,143,12L143,12z M145.6,22.8
			c-1,0-0.9-1.7-0.9-3.5c0-1.8-0.1-3.1,0.9-3.1c1,0,2.7,1.5,2.7,3.3C148.2,21.3,146.6,22.8,145.6,22.8L145.6,22.8z"/>
		<path class="st0" d="M54.4,21.8c0.5-0.4,1-0.5,1.7-0.5c0.7,0,1.3,0.2,1.7,0.6c0.5,0.4,0.7,1,0.7,1.8c0,0.7-0.2,1.3-0.7,1.6
			c-0.5,0.4-1,0.5-1.7,0.5c-0.7,0-1.2-0.2-1.7-0.6c-0.5-0.4-0.7-0.9-0.7-1.7C53.7,22.7,54,22.2,54.4,21.8L54.4,21.8z M59.9,26.4v-8
			h-1.5v2.9c-0.3-0.2-0.6-0.4-1-0.6c-0.4-0.1-0.9-0.2-1.4-0.2c-0.7,0-1.4,0.1-2,0.4c-0.6,0.3-1,0.6-1.3,1.1c-0.3,0.5-0.4,1-0.4,1.6
			c0,0.6,0.2,1.1,0.5,1.6c0.3,0.5,0.8,0.8,1.4,1.1c0.6,0.3,1.3,0.4,2,0.4c1.1,0,1.9-0.3,2.5-0.8v0.7L59.9,26.4L59.9,26.4z"/>
		<path class="st0" d="M62,28.6l-0.2-0.9c0.3,0.1,0.6,0.1,0.9,0.1c0.3,0,0.6,0,0.8-0.1c0.2-0.1,0.4-0.2,0.5-0.3
			c0.1-0.1,0.3-0.3,0.5-0.7c0,0,0.1-0.1,0.1-0.2l-3.4-5.8h1.6l1.9,3.4c0.2,0.4,0.5,0.9,0.7,1.3c0.2-0.4,0.4-0.9,0.6-1.3l1.9-3.4h1.5
			L66,26.5c-0.4,0.6-0.7,1.1-0.9,1.3c-0.3,0.3-0.6,0.6-0.9,0.7c-0.3,0.1-0.8,0.2-1.2,0.2C62.6,28.7,62.3,28.7,62,28.6L62,28.6z"/>
		<path class="st0" d="M70.4,26.4v-5.8h1.4v0.8c0.3-0.3,0.7-0.5,1.1-0.7c0.5-0.2,1-0.3,1.6-0.3c0.7,0,1.2,0.1,1.6,0.3
			c0.4,0.2,0.7,0.4,0.9,0.8c0.7-0.7,1.6-1,2.8-1c0.9,0,1.6,0.2,2,0.5s0.7,0.8,0.7,1.5v4h-1.5v-3.7c0-0.4,0-0.7-0.1-0.9
			c-0.1-0.2-0.3-0.3-0.5-0.4c-0.3-0.1-0.6-0.2-0.9-0.2c-0.6,0-1.1,0.1-1.6,0.4c-0.4,0.3-0.6,0.7-0.6,1.3v3.4h-1.5v-3.8
			c0-0.4-0.1-0.8-0.4-1c-0.2-0.2-0.6-0.3-1.2-0.3c-0.4,0-0.8,0.1-1.2,0.2c-0.4,0.1-0.6,0.4-0.8,0.6c-0.2,0.3-0.2,0.7-0.2,1.2v3
			L70.4,26.4L70.4,26.4z"/>
		<path class="st0" d="M90.1,23.9c0,0.4-0.1,0.8-0.2,1c-0.2,0.3-0.6,0.5-1,0.7c-0.5,0.2-1,0.3-1.6,0.3c-0.6,0-1-0.1-1.3-0.3
			c-0.3-0.2-0.5-0.4-0.5-0.7c0-0.2,0.1-0.3,0.2-0.5c0.1-0.1,0.3-0.2,0.6-0.3c0.3-0.1,0.7-0.1,1.3-0.2c1.1-0.1,1.9-0.2,2.5-0.4
			L90.1,23.9L90.1,23.9z M90.6,26.4h1.6c-0.2-0.2-0.3-0.4-0.4-0.7c-0.1-0.2-0.1-0.8-0.1-1.8v-1.3c0-0.4,0-0.7-0.1-0.9
			c-0.1-0.3-0.2-0.5-0.5-0.7c-0.2-0.2-0.6-0.3-1.1-0.4c-0.5-0.1-1.1-0.2-1.9-0.2c-0.8,0-1.4,0.1-2,0.2c-0.6,0.1-1,0.3-1.3,0.6
			c-0.3,0.3-0.5,0.6-0.7,1l1.5,0.1c0.2-0.4,0.4-0.7,0.8-0.9c0.3-0.2,0.9-0.2,1.6-0.2c0.8,0,1.3,0.1,1.7,0.3c0.3,0.2,0.4,0.5,0.4,0.9
			c0,0,0,0.1,0,0.3c-0.6,0.1-1.5,0.2-2.7,0.3c-0.6,0-1.1,0.1-1.3,0.2c-0.4,0.1-0.8,0.2-1.1,0.3c-0.3,0.1-0.6,0.3-0.8,0.6
			c-0.2,0.2-0.3,0.5-0.3,0.8c0,0.5,0.3,0.9,0.8,1.2c0.5,0.3,1.3,0.5,2.3,0.5c0.6,0,1.2-0.1,1.7-0.2c0.5-0.1,1.1-0.4,1.6-0.7
			C90.3,26,90.4,26.2,90.6,26.4L90.6,26.4z"/>
		<path class="st0" d="M92.7,26.4l3.3-3l-3-2.8h1.9l1.4,1.4c0.3,0.3,0.5,0.5,0.6,0.6c0.2-0.2,0.5-0.4,0.7-0.6l1.5-1.4h1.8l-3,2.8
			l3.2,3h-1.9l-1.8-1.8l-0.4-0.4l-2.4,2.2L92.7,26.4L92.7,26.4z"/>
		<polygon class="st0" points="102,26.4 102,20.6 103.6,20.6 103.6,26.4 		"/>
		<path class="st0" d="M111.4,26.4v-0.8c-0.7,0.7-1.6,1-2.8,1c-0.5,0-1-0.1-1.5-0.2c-0.5-0.1-0.8-0.3-1-0.5
			c-0.2-0.2-0.4-0.4-0.5-0.7c-0.1-0.2-0.1-0.5-0.1-0.9v-3.6h1.5v3.2c0,0.5,0,0.9,0.1,1c0.1,0.3,0.3,0.5,0.6,0.6
			c0.3,0.1,0.7,0.2,1.1,0.2s0.9-0.1,1.3-0.2s0.7-0.4,0.8-0.6c0.2-0.3,0.2-0.6,0.2-1.1v-3.1h1.5v5.8L111.4,26.4L111.4,26.4z"/>
		<path class="st0" d="M114.9,26.4v-5.8h1.4v0.8c0.3-0.3,0.7-0.5,1.1-0.7c0.5-0.2,1-0.3,1.6-0.3c0.7,0,1.2,0.1,1.6,0.3
			c0.4,0.2,0.7,0.4,0.9,0.8c0.7-0.7,1.6-1,2.8-1c0.9,0,1.6,0.2,2,0.5c0.5,0.3,0.7,0.8,0.7,1.5v4h-1.5v-3.7c0-0.4,0-0.7-0.1-0.9
			c-0.1-0.2-0.3-0.3-0.5-0.4c-0.3-0.1-0.6-0.2-0.9-0.2c-0.6,0-1.1,0.1-1.6,0.4c-0.4,0.3-0.6,0.7-0.6,1.3v3.4h-1.5v-3.8
			c0-0.4-0.1-0.8-0.4-1c-0.2-0.2-0.6-0.3-1.2-0.3c-0.4,0-0.8,0.1-1.2,0.2c-0.4,0.1-0.6,0.4-0.8,0.6c-0.2,0.3-0.2,0.7-0.2,1.2v3
			L114.9,26.4L114.9,26.4z"/>
		<path class="st0" d="M102.8,19.7c-0.1,0-0.2,0-0.3-0.1l-0.5-0.5c-0.2-0.2-0.2-0.4,0-0.6l0.5-0.5c0.1-0.1,0.2-0.1,0.3-0.1
			c0.1,0,0.2,0,0.3,0.1l0.5,0.5c0.2,0.2,0.2,0.4,0,0.6l-0.5,0.5C103,19.6,102.9,19.7,102.8,19.7L102.8,19.7z"/>
	</g>
	<g>
		<g>
			<path class="st0" d="M154.4,14.1c-1.4,0-2.6-1.1-2.6-2.6c0-1.4,1.1-2.6,2.6-2.6c1.4,0,2.6,1.1,2.6,2.6
				C157,13,155.9,14.1,154.4,14.1L154.4,14.1z M154.4,9.5c-1.1,0-2,0.9-2,2c0,1.1,0.9,2,2,2c1.1,0,2-0.9,2-2
				C156.5,10.4,155.6,9.5,154.4,9.5L154.4,9.5z"/>
		</g>
		<g>
			<g>
				<path class="st0" d="M153.4,10.3h1.3c0.4,0,0.7,0.3,0.7,0.7c0,0.3-0.1,0.5-0.4,0.6v0c0.3,0.1,0.3,0.3,0.4,0.6
					c0,0.2,0,0.4,0.1,0.6H155c-0.1-0.2-0.1-0.4-0.1-0.6c0-0.3-0.1-0.4-0.4-0.4h-0.5v1h-0.5V10.3z M153.9,11.4h0.6
					c0.2,0,0.4-0.1,0.4-0.4c0-0.2-0.1-0.3-0.4-0.3h-0.6V11.4z"/>
			</g>
		</g>
	</g>
</g>
<g>
	<path class="st0" d="M4.6,27.2v-5.9h0.8v0.4c0.1-0.2,0.2-0.3,0.4-0.4c0.1-0.1,0.3-0.1,0.5-0.1c0.4,0,0.6,0.2,0.8,0.5
		s0.3,0.9,0.3,1.6c0,0.7-0.1,1.3-0.3,1.6c-0.2,0.4-0.4,0.5-0.8,0.5c-0.2,0-0.3,0-0.5-0.1c-0.1-0.1-0.3-0.2-0.4-0.4v2.1L4.6,27.2
		L4.6,27.2z M5.4,23.4c0,0.5,0,0.9,0.1,1.1c0.1,0.2,0.2,0.3,0.4,0.3s0.4-0.1,0.4-0.3c0.1-0.2,0.1-0.6,0.1-1.1c0-0.5,0-0.9-0.1-1.1
		C6.3,22.1,6.2,22,5.9,22s-0.4,0.1-0.4,0.3C5.4,22.5,5.4,22.9,5.4,23.4z"/>
	<path class="st0" d="M7.9,23.4c0-0.7,0.1-1.2,0.4-1.6c0.2-0.4,0.6-0.6,1-0.6s0.8,0.2,1,0.6s0.4,0.9,0.4,1.6c0,0.7-0.1,1.3-0.4,1.6
		c-0.2,0.4-0.6,0.6-1,0.6s-0.8-0.2-1-0.6C8,24.7,7.9,24.1,7.9,23.4z M8.6,23.4c0,0.5,0.1,0.9,0.2,1.1c0.1,0.2,0.3,0.4,0.5,0.4
		c0.2,0,0.4-0.1,0.5-0.4s0.2-0.6,0.2-1.1c0-0.5-0.1-0.9-0.2-1.1S9.5,22,9.3,22c-0.2,0-0.4,0.1-0.5,0.4C8.7,22.5,8.6,22.9,8.6,23.4z"
		/>
	<path class="st0" d="M13.2,23.5c0-0.1,0-0.2-0.1-0.4c0-0.1,0-0.3-0.1-0.5c0,0.2,0,0.3-0.1,0.5c0,0.2,0,0.3-0.1,0.4l-0.4,2.1h-0.5
		l-1-4.2h0.8l0.4,2.1c0,0.1,0,0.2,0.1,0.4s0,0.3,0.1,0.5c0-0.2,0-0.4,0.1-0.5c0-0.1,0-0.3,0.1-0.4l0.4-2.1h0.5l0.4,2.1
		c0,0.1,0.1,0.4,0.1,0.8c0,0,0,0.1,0,0.1c0-0.2,0-0.3,0.1-0.5c0-0.2,0-0.3,0.1-0.4l0.4-2.1h0.8l-1,4.2h-0.5L13.2,23.5z"/>
	<path class="st0" d="M18.1,24.1L18.1,24.1c0,0.5-0.1,0.8-0.3,1.1s-0.5,0.4-0.9,0.4c-0.5,0-0.8-0.2-1-0.5c-0.2-0.3-0.3-0.9-0.3-1.7
		c0-0.7,0.1-1.3,0.3-1.6c0.2-0.4,0.5-0.5,1-0.5c0.5,0,0.8,0.2,1,0.5c0.2,0.3,0.3,0.9,0.3,1.6v0.2h-1.9v0.1c0,0.4,0,0.8,0.1,1
		c0.1,0.2,0.3,0.3,0.5,0.3c0.2,0,0.3-0.1,0.4-0.2c0.1-0.1,0.1-0.3,0.1-0.6L18.1,24.1z M16.2,23h1.2v-0.1c0-0.3,0-0.6-0.1-0.7
		c-0.1-0.2-0.2-0.2-0.4-0.2c-0.2,0-0.3,0.1-0.4,0.3C16.3,22.4,16.2,22.6,16.2,23z"/>
	<path class="st0" d="M18.9,25.5v-4.2h0.7V22c0.1-0.2,0.2-0.4,0.4-0.5s0.4-0.2,0.6-0.2v0.8h-0.1c-0.3,0-0.5,0.1-0.7,0.2
		c-0.1,0.1-0.2,0.4-0.2,0.7v2.5L18.9,25.5L18.9,25.5z"/>
	<path class="st0" d="M23.6,24.1L23.6,24.1c0,0.5-0.1,0.8-0.3,1.1s-0.5,0.4-0.9,0.4c-0.5,0-0.8-0.2-1-0.5c-0.2-0.3-0.3-0.9-0.3-1.7
		c0-0.7,0.1-1.3,0.3-1.6c0.2-0.4,0.5-0.5,1-0.5c0.5,0,0.8,0.2,1,0.5c0.2,0.3,0.3,0.9,0.3,1.6v0.2h-1.9v0.1c0,0.4,0,0.8,0.1,1
		c0.1,0.2,0.3,0.3,0.5,0.3c0.2,0,0.3-0.1,0.4-0.2c0.1-0.1,0.1-0.3,0.1-0.6L23.6,24.1z M21.8,23h1.2v-0.1c0-0.3,0-0.6-0.1-0.7
		c-0.1-0.2-0.2-0.2-0.4-0.2c-0.2,0-0.3,0.1-0.4,0.3C21.8,22.4,21.8,22.6,21.8,23z"/>
	<path class="st0" d="M26.2,25.5v-0.4c-0.1,0.2-0.2,0.3-0.4,0.4c-0.1,0.1-0.3,0.1-0.5,0.1c-0.4,0-0.6-0.2-0.8-0.5
		c-0.2-0.4-0.3-0.9-0.3-1.6c0-0.7,0.1-1.3,0.3-1.6c0.2-0.4,0.4-0.5,0.8-0.5c0.2,0,0.3,0,0.5,0.1c0.1,0.1,0.3,0.2,0.4,0.4v-2.8h0.8
		v6.6L26.2,25.5L26.2,25.5z M25,23.5c0,0.5,0,0.9,0.1,1.1s0.2,0.3,0.4,0.3s0.4-0.1,0.4-0.3c0.1-0.2,0.1-0.6,0.1-1.1
		c0-0.5,0-0.9-0.1-1.1S25.8,22,25.6,22s-0.4,0.1-0.4,0.3C25.1,22.5,25,22.9,25,23.5z"/>
	<path class="st0" d="M29.5,25.5v-6.6h0.8v2.8c0.1-0.2,0.2-0.3,0.4-0.4c0.1-0.1,0.3-0.1,0.5-0.1c0.4,0,0.6,0.2,0.8,0.5
		c0.2,0.4,0.3,0.9,0.3,1.6c0,0.7-0.1,1.3-0.3,1.6c-0.2,0.4-0.4,0.5-0.8,0.5c-0.2,0-0.3,0-0.5-0.1c-0.1-0.1-0.3-0.2-0.4-0.4v0.4
		L29.5,25.5L29.5,25.5z M30.2,23.5c0,0.5,0,0.9,0.1,1.1c0.1,0.2,0.2,0.3,0.4,0.3s0.4-0.1,0.4-0.3c0.1-0.2,0.1-0.6,0.1-1.1
		c0-0.5,0-0.9-0.1-1.1S31,22,30.8,22s-0.4,0.1-0.4,0.3C30.3,22.5,30.2,22.9,30.2,23.5z"/>
	<path class="st0" d="M32.6,21.4h0.8l0.5,2.7l0.7-2.7h0.8l-1.7,5.9h-0.8l0.6-2.1L32.6,21.4z"/>
</g>
<line class="st1" x1="43.9" y1="12.7" x2="43.9" y2="33.5"/>
</svg>
