<?xml version="1.0" encoding="utf-8"?>
<!-- Generator: Adobe Illustrator 22.1.0, SVG Export Plug-In . SVG Version: 6.00 Build 0)  -->
<svg version="1.1" id="Layer_1" xmlns="http://www.w3.org/2000/svg" xmlns:xlink="http://www.w3.org/1999/xlink" x="0px" y="0px"
	 viewBox="0 0 23.4 24.5" style="enable-background:new 0 0 23.4 24.5;" xml:space="preserve">
<style type="text/css">
	.st0{fill:#FFFFFF;}
</style>
<path id="button_banner_options" class="st0" d="M20.3,14.6l3.1,1.8l-2.2,3.9l-3.1-1.8c-1.1,1.2-2.6,2-4.1,2.4v3.6H9.5v-3.6
	c-1.6-0.4-3-1.2-4.1-2.4l-3.1,1.8L0,16.4l3.1-1.8c-0.4-1.6-0.4-3.2,0-4.8L0,8.1l2.2-3.9L5.4,6c1.1-1.2,2.6-2,4.1-2.4V0H14v3.6
	c1.6,0.4,3,1.2,4.1,2.4l3.1-1.8l2.2,3.9l-3.1,1.8C20.7,11.4,20.7,13.1,20.3,14.6 M11.7,7.8c-2.5,0-4.5,2-4.5,4.5
	c0,2.5,2,4.5,4.5,4.5s4.5-2,4.5-4.5c0,0,0,0,0,0C16.2,9.8,14.2,7.8,11.7,7.8"/>
</svg>
